<svg width="78" height="65" viewBox="0 0 78 65" fill="none" xmlns="http://www.w3.org/2000/svg">
<path fill-rule="evenodd" clip-rule="evenodd" d="M36 19.2C36 20.9673 34.6569 22.4 33 22.4C31.3431 22.4 30 20.9673 30 19.2C30 17.4327 31.3431 16 33 16C34.6569 16 36 17.4327 36 19.2ZM36 32C36 33.7673 34.6569 35.2 33 35.2C31.3431 35.2 30 33.7673 30 32C30 30.2327 31.3431 28.8 33 28.8C34.6569 28.8 36 30.2327 36 32ZM33 48C34.6569 48 36 46.5673 36 44.8C36 43.0327 34.6569 41.6 33 41.6C31.3431 41.6 30 43.0327 30 44.8C30 46.5673 31.3431 48 33 48Z" fill="black"/>
</svg>
